# xmcd
#
# Track frame offsets:
#	150
#	19797
#	39092
#	57664
#	80424
#	98584
#	120908
#	138955
#
# Disc length: 1998 seconds
#
# Revision: 1
# Processed by: cddbd v1.5.2PL0 Copyright (c) Steve Scherf et al.
# Submitted via: audiograbber 1.83.01
#
DISCID=5707cc08
DTITLE=Bluescollected - acoustic Folk and Blues
DYEAR=1900
DGENRE=
TTITLE0=Ja, des isch d'r Blues
TTITLE1=s' Zügle
TTITLE2=Walkin' Blues
TTITLE3=I don't know why
TTITLE4=Walk on
TTITLE5=Jesus just left Chicago
TTITLE6=Truckin' my Blues away
TTITLE7=Back to the country
EXTD=
EXTT0=
EXTT1=
EXTT2=
EXTT3=
EXTT4=
EXTT5=
EXTT6=
EXTT7=
PLAYORDER=
